<svg xmlns="http://www.w3.org/2000/svg" width="640" height="400" viewBox="0 0 640 400"><rect width="640" height="400" fill="#e3edf7"/><g font-family="Arial,sans-serif"><text x="40" y="48" fill="#56748f" font-size="13" letter-spacing="3">AUTONOMOUS EXPERIMENTS</text><rect x="50" y="85" width="220" height="85" rx="12" fill="#fff" stroke="#bacde1"/><text x="160.0" y="115" text-anchor="middle" fill="#233c58" font-size="17">Propose improvement</text><rect x="370" y="85" width="220" height="85" rx="12" fill="#fff" stroke="#bacde1"/><text x="480.0" y="115" text-anchor="middle" fill="#233c58" font-size="17">Run experiment</text><rect x="210" y="260" width="220" height="85" rx="12" fill="#fff" stroke="#bacde1"/><text x="320.0" y="290" text-anchor="middle" fill="#233c58" font-size="17">Evaluate results</text><g stroke="#1c63b8" stroke-width="3" fill="none"><path d="M280 125h75m-10-10 10 10-10 10"/><path d="M480 185v30l-100 35m5-14-5 14 15 3"/><path d="M195 300 155 220v-35m-10 10 10-10 10 10"/></g><text x="320" y="215" text-anchor="middle" fill="#54758e" font-size="14">iterate · measure · improve</text></g></svg>